<svg width="60" height="63" viewBox="0 0 60 63" fill="none" xmlns="http://www.w3.org/2000/svg">
<path d="M6.74264 2.11278C7.2184 0.7818 8.55731 -1.16312 10.1069 1.70499C11.6565 4.57311 21.2924 13.1505 25.9167 17.0807C28.418 16.2714 35.286 18.1486 42.7482 32.1317C45.9466 36.2439 54.3836 39.2205 58.2024 40.1947C59.4678 40.3627 61.0715 41.0615 57.3625 42.5129C56.0004 42.5921 55.3803 42.5974 55.142 42.5769L55.8843 43.3192C54.4732 43.9463 51.5705 45.1938 51.248 45.1669C50.857 44.4331 50.7507 44.3139 50.7464 44.3459L50.817 45.2764L45.3176 45.1669L46.0812 46.7908L44.0213 46.2775L46.8962 48.2989L49.0202 51.9309L46.7742 50.7309C48.717 52.9788 53.1013 57.5682 55.0967 57.9429C42.81 60.9767 16.0437 65.6362 7.27224 60.0035L5.8074 61.0181C6.20678 58.9417 7.39159 54.1516 8.93577 51.6021L6.19061 52.6286C7.70879 49.2699 10.0506 40.7887 7.27224 33.7333C5.57309 26.3793 3.73102 23.7203 3.02237 23.31C1.75428 21.5198 -0.558133 16.8091 0.336995 12.2887C1.77933 12.4929 2.26148 12.5817 2.50255 12.8101C3.01007 11.7646 3.16233 11.4271 3.17502 11.3891L3.37803 13.6983C5.20306 14.5808 8.15397 15.027 5.35738 9.75229C4.85008 10.4088 4.59063 10.6756 4.52432 10.727C4.90642 10.1186 5.44136 8.59079 4.52432 7.34604C4.19064 5.2083 6.02836 2.11278 6.74264 2.11278Z" fill="white"/>
</svg>
