<svg width="652" height="123" viewBox="0 0 652 123" fill="none" xmlns="http://www.w3.org/2000/svg">
<path d="M51.3894 110.938V12.833H75.334V50.9391H110.362V12.833H134.306V110.938H110.362V72.5577H75.334V110.938H51.3894ZM254.098 12.833H279.753L294.598 81.9303L311.838 12.833H333.457L350.629 81.9303L365.543 12.833H391.129L365.68 110.938H338.451L322.648 49.2972L306.776 110.938H279.616L254.098 12.833ZM400.981 110.938V12.833H424.925V89.5242H454.343V110.938H400.981ZM465.152 110.938V12.833H517.42V34.3147H489.097V50.6655H513.178V72.0104H489.097V89.5242H518.515V110.938H465.152ZM533.155 110.938V12.833H565.104C576.552 12.833 585.126 15.4099 590.827 20.5637C596.574 25.6719 599.448 33.1517 599.448 43.0032C599.448 48.5675 598.262 53.6757 595.89 58.3278C593.564 62.9798 590.212 66.5145 585.833 68.9318L608.41 110.938H581.934L564.42 74.6785H557.1V110.938H533.155ZM557.1 54.6334H564.283C567.567 54.6334 570.144 53.6757 572.014 51.7601C573.929 49.7989 574.887 47.1536 574.887 43.8242C574.887 40.4491 573.975 37.8722 572.151 36.0935C570.326 34.3147 567.316 33.4253 563.12 33.4253H557.1V54.6334Z" fill="#FFF"/>
<path d="M175.564 47.4472C173.069 44.8077 172.189 47.2866 172.061 48.856C171.293 49.062 170.208 52.9228 171.183 55.127C172.529 56.202 172.394 58.0003 172.158 58.7651C172.214 58.6907 172.417 58.3288 172.773 57.4761C177.303 62.3457 173.999 62.7164 171.781 62.293L170.897 59.8666C170.894 59.9112 170.828 60.3183 170.583 61.5897C170.258 61.4134 169.713 61.4569 168.102 61.653C168.442 66.7754 172.289 71.1776 174.17 72.7384C175.051 72.9756 177.8 75.3058 181.748 82.7293C186.772 89.5203 186.698 99.3219 186.033 103.374L188.691 101.478C187.764 104.666 184.344 113.516 184.513 115.866C174.948 113.555 154.128 102.446 147.365 76.5012C140.602 50.5559 155.558 31.1107 163.712 24.4205C205.078 -9.52165 274.173 34.857 236.702 94.4629C234.447 94.635 231.895 91.4889 229.156 89.6302L231.919 90.2739L228.586 86.978L224.91 85.6317L227.275 85.5902L225.985 84.063L231.934 82.5951L231.59 81.6142C231.585 81.5785 231.734 81.6762 232.366 82.353C232.721 82.289 235.485 80.1096 236.822 79.0279L235.81 78.4432C235.627 78.4758 235.64 78.4414 235.722 78.3928L235.81 78.4432C236.072 78.3965 236.738 78.212 238.181 77.7341C241.753 75.1029 239.826 74.8133 238.416 74.9974C234.026 75.0501 224.089 74.2797 219.461 70.777C207.4 57.8817 199.468 57.842 197.01 59.4341C190.9 56.5382 178.058 50.0867 175.564 47.4472Z" fill="#FFF"/>
</svg>
