<svg width="130" height="63" viewBox="0 0 130 63" fill="none" xmlns="http://www.w3.org/2000/svg">
<path d="M88.1833 18.5779C88.1833 8.31763 96.5009 0 106.761 0V0C107.372 0 107.867 0.495097 107.867 1.10583V17.7154C107.867 18.8025 106.986 19.6838 105.899 19.6838H89.2891C88.6784 19.6838 88.1833 19.1887 88.1833 18.5779V18.5779Z" fill="#00E0EE"/>
<path d="M110.229 1.40598C110.229 0.62948 110.859 0 111.635 0V0C121.73 0 129.913 8.18324 129.913 18.2778V18.2778C129.913 19.0543 129.283 19.6838 128.507 19.6838H112.198C111.11 19.6838 110.229 18.8025 110.229 17.7154V1.40598Z" fill="#00E0EE"/>
<path d="M110.229 45.2727C110.229 44.1856 111.11 43.3043 112.198 43.3043H128.422C129.245 43.3043 129.913 43.9719 129.913 44.7955V44.7955C129.913 54.843 121.768 62.9881 111.72 62.9881V62.9881C110.897 62.9881 110.229 62.3204 110.229 61.4969V45.2727Z" fill="#00E0EE"/>
<path d="M88.1833 24.4079C88.1833 23.3208 89.0646 22.4395 90.1517 22.4395H105.899C106.986 22.4395 107.867 23.3208 107.867 24.4079V61.5736C107.867 62.3614 107.228 63 106.441 63V63C96.3574 63 88.1833 54.8259 88.1833 44.7426V24.4079Z" fill="#00E0EE"/>
<path d="M22.0458 18.5654C22.0458 8.312 30.3578 0 40.6112 0V0C41.2289 0 41.7296 0.500723 41.7296 1.1184V17.7154C41.7296 18.8025 40.8483 19.6838 39.7612 19.6838H23.1642C22.5466 19.6838 22.0458 19.183 22.0458 18.5654V18.5654Z" fill="#00E0EE"/>
<rect x="44.0917" y="13.1225" width="19.6838" height="6.56123" rx="1.96838" fill="#00E0EE"/>
<path d="M66.1375 1.1444C66.1375 0.512367 66.6498 0 67.2819 0V0C77.5209 0 85.8213 8.30036 85.8213 18.5394V18.5394C85.8213 19.1714 85.3089 19.6838 84.6768 19.6838H68.1059C67.0188 19.6838 66.1375 18.8025 66.1375 17.7154V1.1444Z" fill="#00E0EE"/>
<rect x="22.0458" y="22.4395" width="19.6838" height="40.5605" rx="1.96838" fill="#00E0EE"/>
<rect x="44.0917" y="22.4395" width="19.6838" height="19.6838" rx="1.96838" fill="#00E0EE"/>
<rect x="66.1375" y="22.4395" width="19.6838" height="40.5605" rx="1.96838" fill="#00E0EE"/>
<rect width="19.6838" height="19.6838" rx="9.84189" fill="#00E0EE"/>
<rect y="22.4395" width="19.6838" height="40.5605" rx="1.96838" fill="#00E0EE"/>
</svg>
