<svg width="36" height="36" viewBox="0 0 36 36" fill="none" xmlns="http://www.w3.org/2000/svg">
<circle cx="18.1109" cy="18.3458" r="17.5238" fill="white"/>
<path d="M9.57944 14.5733C9.49892 14.1316 9.55834 13.3839 10.4402 13.9268C11.322 14.4697 15.3353 15.2989 17.2317 15.6456C17.7912 15.0257 19.9788 14.4512 24.2526 17.1128C25.7856 17.7361 28.5795 17.2149 29.7848 16.8764C30.1596 16.7216 30.7117 16.6591 29.9219 17.6475C29.5598 17.8856 29.39 17.9856 29.3212 18.0178L29.6433 18.1041C29.3547 18.5008 28.7543 19.305 28.6613 19.3488C28.4372 19.2091 28.389 19.1931 28.3929 19.2026L28.5601 19.4474L27.0299 20.2908L27.4979 20.6162L26.8496 20.8022L27.9616 20.9016L29.1228 21.5635L28.3143 21.5901C29.2058 21.8999 31.1409 22.4661 31.7493 22.2522C28.8511 25.0384 22.2277 30.5715 18.92 30.4151L18.6781 30.9269C18.4582 30.2922 18.0233 28.7863 18.0432 27.8397L17.451 28.5581C17.3352 27.3929 16.6324 24.6878 14.7474 23.1881C13.112 21.4349 12.1829 20.9959 11.9228 20.9956C11.2895 20.7045 9.90521 19.7759 9.43348 18.3902C9.8627 18.2173 10.0094 18.1651 10.112 18.1896C10.0856 17.8214 10.0739 17.7044 10.0713 17.6919L10.494 18.2949C11.1362 18.2478 12.0189 17.9019 10.4117 16.895C10.3765 17.1562 10.3475 17.2708 10.3374 17.2954C10.3459 17.0674 10.2504 16.5621 9.80037 16.3653C9.36904 15.8302 9.38294 14.6868 9.57944 14.5733Z" fill="#8C32FF"/>
</svg>
