<svg width="36" height="36" viewBox="0 0 36 36" fill="none" xmlns="http://www.w3.org/2000/svg">
<circle cx="18.1418" cy="17.9045" r="17.5238" fill="black"/>
<path d="M9.61041 14.1319C9.52989 13.6902 9.58932 12.9425 10.4712 13.4854C11.353 14.0283 15.3662 14.8575 17.2626 15.2042C17.8222 14.5843 20.0098 14.0099 24.2836 16.6714C25.8166 17.2947 28.6104 16.7735 29.8157 16.435C30.1906 16.2802 30.7427 16.2178 29.9529 17.2061C29.5907 17.4443 29.421 17.5442 29.3522 17.5764L29.6743 17.6627C29.3857 18.0594 28.7853 18.8636 28.6923 18.9075C28.4682 18.7677 28.42 18.7518 28.4239 18.7613L28.5911 19.006L27.0608 19.8494L27.5288 20.1748L26.8806 20.3608L27.9925 20.4603L29.1538 21.1221L28.3453 21.1487C29.2368 21.4585 31.1719 22.0247 31.7803 21.8109C28.8821 24.597 22.2586 30.1301 18.9509 29.9738L18.7091 30.4855C18.4892 29.8509 18.0543 28.3449 18.0742 27.3983L17.482 28.1167C17.3662 26.9516 16.6634 24.2464 14.7784 22.7467C13.1429 20.9935 12.2138 20.5546 11.9537 20.5543C11.3205 20.2632 9.93618 19.3345 9.46446 17.9488C9.89368 17.7759 10.0404 17.7237 10.143 17.7483C10.1166 17.38 10.1049 17.263 10.1023 17.2505L10.5249 17.8536C11.1672 17.8065 12.0499 17.4605 10.4427 16.4536C10.4074 16.7148 10.3784 16.8294 10.3683 16.8541C10.3768 16.626 10.2813 16.1207 9.83135 15.924C9.40001 15.3889 9.41391 14.2454 9.61041 14.1319Z" fill="white"/>
</svg>
